<svg xmlns="http://www.w3.org/2000/svg" xmlns:xlink="http://www.w3.org/1999/xlink" width="500" zoomAndPan="magnify" viewBox="0 0 375 374.999991" height="500" preserveAspectRatio="xMidYMid meet" version="1.2"><defs/><g id="9950caaa06"><g style="fill:#d26e7f;fill-opacity:1;"><g transform="translate(37.507973, 193.013959)"><path style="stroke:none" d="M 62.84375 -12.875 C 64.382812 -10.507812 64.382812 -8.28125 62.84375 -6.1875 C 61.019531 -3.820312 59.175781 -2.226562 57.3125 -1.40625 C 51.414062 1.34375 44.945312 2.882812 37.90625 3.21875 C 27.445312 2.445312 18.96875 -0.960938 12.46875 -7.015625 C 3.769531 -15.109375 1.097656 -25.625 4.453125 -38.5625 C 6.929688 -48.3125 12.960938 -56.265625 22.546875 -62.421875 C 24.742188 -63.804688 27.050781 -64.84375 29.46875 -65.53125 C 31.894531 -66.21875 34.320312 -66.5625 36.75 -66.5625 C 39.613281 -66.5625 42.378906 -66.101562 45.046875 -65.1875 C 47.710938 -64.28125 50.148438 -62.921875 52.359375 -61.109375 C 54.003906 -59.734375 55.210938 -58.25 55.984375 -56.65625 C 56.648438 -55.164062 56.597656 -53.84375 55.828125 -52.6875 C 54.941406 -51.53125 53.617188 -51.0625 51.859375 -51.28125 C 50.585938 -51.394531 49.179688 -51.78125 47.640625 -52.4375 C 41.921875 -54.75 36.84375 -55.023438 32.40625 -53.265625 C 27.976562 -51.503906 23.863281 -47.59375 20.0625 -41.53125 C 19.238281 -40.21875 18.617188 -38.816406 18.203125 -37.328125 C 17.796875 -35.835938 17.484375 -34.488281 17.265625 -33.28125 C 16.492188 -29.425781 17.015625 -25.789062 18.828125 -22.375 C 20.640625 -18.96875 23.445312 -16.351562 27.25 -14.53125 C 30.21875 -13.039062 33.144531 -12.171875 36.03125 -11.921875 C 38.925781 -11.679688 41.707031 -11.804688 44.375 -12.296875 C 47.050781 -12.796875 49.601562 -13.457031 52.03125 -14.28125 C 52.738281 -14.5 53.519531 -14.734375 54.375 -14.984375 C 55.226562 -15.234375 56.039062 -15.414062 56.8125 -15.53125 C 59.457031 -15.800781 61.46875 -14.914062 62.84375 -12.875 Z M 62.84375 -12.875 "/></g></g><g style="fill:#d26e7f;fill-opacity:1;"><g transform="translate(104.472545, 193.013959)"><path style="stroke:none" d="M 42.6875 -21.3125 C 43.070312 -19.320312 42.9375 -17.429688 42.28125 -15.640625 C 41.625 -13.859375 40.660156 -12.164062 39.390625 -10.5625 C 38.234375 -9.132812 36.882812 -8.515625 35.34375 -8.703125 C 33.800781 -8.898438 32.703125 -9.878906 32.046875 -11.640625 C 31.660156 -12.628906 31.367188 -13.6875 31.171875 -14.8125 C 30.984375 -15.945312 30.804688 -17.066406 30.640625 -18.171875 C 30.421875 -19.648438 30.238281 -21.132812 30.09375 -22.625 C 29.957031 -24.113281 29.78125 -25.597656 29.5625 -27.078125 C 29.445312 -27.742188 29.238281 -28.40625 28.9375 -29.0625 C 28.632812 -29.726562 28.320312 -30.5 28 -31.375 C 26.125 -29.726562 24.660156 -28.023438 23.609375 -26.265625 C 22.566406 -24.503906 21.910156 -22.519531 21.640625 -20.3125 C 21.421875 -18.664062 21.144531 -17.039062 20.8125 -15.4375 C 20.476562 -13.84375 20.066406 -12.273438 19.578125 -10.734375 C 19.128906 -9.304688 18.378906 -8.191406 17.328125 -7.390625 C 16.285156 -6.585938 14.992188 -6.1875 13.453125 -6.1875 C 11.972656 -6.25 10.707031 -6.675781 9.65625 -7.46875 C 8.613281 -8.269531 7.925781 -9.332031 7.59375 -10.65625 C 7.039062 -12.800781 6.546875 -14.945312 6.109375 -17.09375 C 5.671875 -19.238281 5.34375 -21.414062 5.125 -23.625 C 4.675781 -28.957031 4.300781 -34.320312 4 -39.71875 C 3.695312 -45.113281 3.382812 -50.484375 3.0625 -55.828125 C 3 -56.867188 3.050781 -57.898438 3.21875 -58.921875 C 3.382812 -59.941406 3.550781 -60.972656 3.71875 -62.015625 C 4.050781 -63.671875 4.695312 -64.960938 5.65625 -65.890625 C 6.625 -66.828125 7.738281 -67.296875 9 -67.296875 C 10.269531 -67.296875 11.398438 -66.882812 12.390625 -66.0625 C 13.378906 -65.238281 14.066406 -64.023438 14.453125 -62.421875 C 15.171875 -59.347656 15.816406 -56.269531 16.390625 -53.1875 C 16.972656 -50.101562 17.59375 -47.019531 18.25 -43.9375 C 18.363281 -43.21875 18.5 -42.484375 18.65625 -41.734375 C 18.820312 -40.992188 19.015625 -40.238281 19.234375 -39.46875 C 19.847656 -39.582031 20.15625 -39.640625 20.15625 -39.640625 C 24.445312 -42.003906 28.226562 -42.675781 31.5 -41.65625 C 34.78125 -40.644531 37.410156 -37.90625 39.390625 -33.4375 C 40.210938 -31.507812 40.882812 -29.515625 41.40625 -27.453125 C 41.9375 -25.390625 42.363281 -23.34375 42.6875 -21.3125 Z M 42.6875 -21.3125 "/></g></g><g style="fill:#d26e7f;fill-opacity:1;"><g transform="translate(150.464241, 193.013959)"><path style="stroke:none" d="M 29.15625 -38.8125 C 31.625 -38.425781 33.765625 -37.53125 35.578125 -36.125 C 37.398438 -34.71875 38.75 -32.96875 39.625 -30.875 C 40.507812 -28.789062 40.757812 -26.507812 40.375 -24.03125 C 39.988281 -21.0625 39.203125 -18.296875 38.015625 -15.734375 C 36.835938 -13.171875 35.175781 -10.84375 33.03125 -8.75 C 29.507812 -5.34375 25.242188 -3.664062 20.234375 -3.71875 C 18.523438 -4.101562 16.800781 -4.445312 15.0625 -4.75 C 13.332031 -5.050781 11.640625 -5.476562 9.984375 -6.03125 C 6.742188 -7.1875 4.378906 -9.03125 2.890625 -11.5625 C 1.398438 -14.09375 0.90625 -17.066406 1.40625 -20.484375 C 2.007812 -24.492188 3.367188 -28 5.484375 -31 C 7.609375 -34.007812 10.40625 -36.554688 13.875 -38.640625 C 16.84375 -40.410156 20.035156 -40.828125 23.453125 -39.890625 C 24.390625 -39.609375 25.335938 -39.382812 26.296875 -39.21875 C 27.265625 -39.0625 28.21875 -38.925781 29.15625 -38.8125 Z M 26.75 -22.875 C 27.414062 -24.851562 26.921875 -26.421875 25.265625 -27.578125 C 23.722656 -28.679688 22.539062 -29.382812 21.71875 -29.6875 C 20.894531 -29.988281 20.148438 -29.847656 19.484375 -29.265625 C 18.828125 -28.691406 17.972656 -27.632812 16.921875 -26.09375 C 16.597656 -25.59375 16.328125 -25.179688 16.109375 -24.859375 C 14.503906 -22.046875 14.003906 -20.078125 14.609375 -18.953125 C 15.222656 -17.828125 17.125 -17.179688 20.3125 -17.015625 C 21.96875 -16.953125 23.25 -17.347656 24.15625 -18.203125 C 25.0625 -19.054688 25.925781 -20.613281 26.75 -22.875 Z M 26.75 -22.875 "/></g></g><g style="fill:#d26e7f;fill-opacity:1;"><g transform="translate(192.987977, 193.013959)"><path style="stroke:none" d="M 40.546875 -13.953125 C 40.984375 -12.078125 40.953125 -10.46875 40.453125 -9.125 C 39.960938 -7.78125 39.054688 -6.832031 37.734375 -6.28125 C 34.984375 -5.175781 32.5625 -6.382812 30.46875 -9.90625 C 30.414062 -9.957031 30.359375 -10.023438 30.296875 -10.109375 C 30.242188 -10.191406 30.164062 -10.289062 30.0625 -10.40625 C 29.007812 -9.6875 28 -8.96875 27.03125 -8.25 C 26.070312 -7.539062 25.097656 -6.910156 24.109375 -6.359375 C 21.628906 -5.085938 19.164062 -4.507812 16.71875 -4.625 C 14.269531 -4.738281 12.066406 -5.484375 10.109375 -6.859375 C 8.160156 -8.234375 6.632812 -10.1875 5.53125 -12.71875 C 3.65625 -17.175781 2.84375 -21.617188 3.09375 -26.046875 C 3.34375 -30.484375 4.347656 -34.90625 6.109375 -39.3125 C 6.492188 -40.25 7.070312 -41.019531 7.84375 -41.625 C 8.613281 -42.226562 9.578125 -42.421875 10.734375 -42.203125 C 12.003906 -41.972656 12.859375 -41.429688 13.296875 -40.578125 C 13.734375 -39.734375 13.976562 -38.734375 14.03125 -37.578125 C 14.144531 -35.972656 14.210938 -34.34375 14.234375 -32.6875 C 14.265625 -31.039062 14.363281 -29.394531 14.53125 -27.75 C 14.695312 -26.476562 14.90625 -25.195312 15.15625 -23.90625 C 15.40625 -22.613281 15.722656 -21.332031 16.109375 -20.0625 C 16.546875 -18.632812 17.160156 -17.847656 17.953125 -17.703125 C 18.753906 -17.566406 19.597656 -18.109375 20.484375 -19.328125 C 21.191406 -20.316406 21.804688 -21.398438 22.328125 -22.578125 C 22.859375 -23.765625 23.289062 -24.9375 23.625 -26.09375 C 24.28125 -28.351562 24.851562 -30.640625 25.34375 -32.953125 C 25.84375 -35.265625 26.367188 -37.546875 26.921875 -39.796875 C 27.359375 -41.335938 28.15625 -42.507812 29.3125 -43.3125 C 30.46875 -44.113281 31.765625 -44.429688 33.203125 -44.265625 C 34.679688 -44.046875 35.875 -43.410156 36.78125 -42.359375 C 37.695312 -41.316406 38.207031 -40 38.3125 -38.40625 C 38.3125 -38.125 38.3125 -37.84375 38.3125 -37.5625 C 38.3125 -37.289062 38.285156 -37.019531 38.234375 -36.75 C 37.679688 -32.84375 37.707031 -29.003906 38.3125 -25.234375 C 38.914062 -21.460938 39.660156 -17.703125 40.546875 -13.953125 Z M 40.546875 -13.953125 "/></g></g><g style="fill:#d26e7f;fill-opacity:1;"><g transform="translate(236.9154, 193.013959)"><path style="stroke:none" d="M 30.546875 -27.078125 C 29.453125 -26.148438 28.695312 -25.453125 28.28125 -24.984375 C 27.863281 -24.515625 27.78125 -24.003906 28.03125 -23.453125 C 28.28125 -22.898438 28.847656 -22.046875 29.734375 -20.890625 C 30.554688 -19.734375 31.363281 -18.578125 32.15625 -17.421875 C 32.957031 -16.265625 33.691406 -15.054688 34.359375 -13.796875 C 35.285156 -12.023438 35.625 -10.328125 35.375 -8.703125 C 35.132812 -7.085938 34.378906 -5.8125 33.109375 -4.875 C 31.953125 -3.9375 30.503906 -3.535156 28.765625 -3.671875 C 27.035156 -3.804688 25.484375 -4.535156 24.109375 -5.859375 C 22.898438 -7.078125 21.757812 -8.382812 20.6875 -9.78125 C 19.613281 -11.1875 18.472656 -12.601562 17.265625 -14.03125 C 16.597656 -13.375 15.960938 -12.742188 15.359375 -12.140625 C 14.753906 -11.535156 14.117188 -10.957031 13.453125 -10.40625 C 12.796875 -9.90625 12.125 -9.363281 11.4375 -8.78125 C 10.75 -8.207031 10.019531 -7.84375 9.25 -7.6875 C 8.425781 -7.570312 7.476562 -7.566406 6.40625 -7.671875 C 5.332031 -7.785156 4.519531 -8.117188 3.96875 -8.671875 C 3.46875 -9.109375 3.175781 -9.890625 3.09375 -11.015625 C 3.007812 -12.148438 3.132812 -13.046875 3.46875 -13.703125 C 4.238281 -15.242188 5.132812 -16.71875 6.15625 -18.125 C 7.175781 -19.53125 8.234375 -20.894531 9.328125 -22.21875 C 9.929688 -22.925781 10.285156 -23.597656 10.390625 -24.234375 C 10.503906 -24.867188 10.316406 -25.597656 9.828125 -26.421875 C 9.222656 -27.410156 8.65625 -28.441406 8.125 -29.515625 C 7.601562 -30.585938 7.179688 -31.675781 6.859375 -32.78125 C 6.523438 -33.9375 6.484375 -35.078125 6.734375 -36.203125 C 6.984375 -37.335938 7.679688 -38.289062 8.828125 -39.0625 C 9.984375 -39.78125 11.082031 -40 12.125 -39.71875 C 13.175781 -39.445312 14.171875 -38.953125 15.109375 -38.234375 C 15.710938 -37.796875 16.316406 -37.328125 16.921875 -36.828125 C 17.535156 -36.335938 18.035156 -35.816406 18.421875 -35.265625 C 19.296875 -33.992188 20.160156 -33.382812 21.015625 -33.4375 C 21.867188 -33.5 22.847656 -33.882812 23.953125 -34.59375 C 25.160156 -35.425781 26.410156 -36.171875 27.703125 -36.828125 C 28.992188 -37.492188 30.328125 -38.046875 31.703125 -38.484375 C 32.367188 -38.648438 33.179688 -38.617188 34.140625 -38.390625 C 35.109375 -38.171875 35.785156 -37.816406 36.171875 -37.328125 C 36.554688 -36.828125 36.75 -36.082031 36.75 -35.09375 C 36.75 -34.101562 36.582031 -33.332031 36.25 -32.78125 C 35.476562 -31.675781 34.597656 -30.671875 33.609375 -29.765625 C 32.617188 -28.859375 31.597656 -27.960938 30.546875 -27.078125 Z M 30.546875 -27.078125 "/></g></g><g style="fill:#d26e7f;fill-opacity:1;"><g transform="translate(276.796913, 193.013959)"><path style="stroke:none" d="M 15.359375 -35.265625 C 15.359375 -34.328125 15.359375 -32.960938 15.359375 -31.171875 C 15.359375 -29.378906 15.34375 -27.460938 15.3125 -25.421875 C 15.289062 -23.390625 15.265625 -21.546875 15.234375 -19.890625 C 15.203125 -18.242188 15.1875 -17.09375 15.1875 -16.4375 C 15.132812 -15.601562 15.066406 -14.773438 14.984375 -13.953125 C 14.898438 -13.128906 14.773438 -12.304688 14.609375 -11.484375 C 14.222656 -9.273438 13.453125 -7.578125 12.296875 -6.390625 C 11.140625 -5.210938 9.820312 -4.679688 8.34375 -4.796875 C 6.851562 -4.898438 5.554688 -5.582031 4.453125 -6.84375 C 3.359375 -8.113281 2.921875 -9.820312 3.140625 -11.96875 C 3.472656 -16.039062 3.96875 -20.097656 4.625 -24.140625 C 5.28125 -28.191406 5.96875 -32.253906 6.6875 -36.328125 C 6.90625 -37.429688 7.441406 -38.3125 8.296875 -38.96875 C 9.148438 -39.632812 10.210938 -39.882812 11.484375 -39.71875 C 12.742188 -39.613281 13.691406 -39.132812 14.328125 -38.28125 C 14.960938 -37.425781 15.304688 -36.421875 15.359375 -35.265625 Z M 9.171875 -46.828125 C 7.847656 -46.878906 6.726562 -47.410156 5.8125 -48.421875 C 4.90625 -49.441406 4.453125 -50.671875 4.453125 -52.109375 C 4.453125 -53.535156 4.945312 -54.757812 5.9375 -55.78125 C 6.9375 -56.800781 8.148438 -57.3125 9.578125 -57.3125 C 10.953125 -57.3125 12.117188 -56.828125 13.078125 -55.859375 C 14.046875 -54.898438 14.503906 -53.703125 14.453125 -52.265625 C 14.453125 -50.785156 13.914062 -49.492188 12.84375 -48.390625 C 11.769531 -47.285156 10.546875 -46.765625 9.171875 -46.828125 Z M 9.171875 -46.828125 "/></g></g><g style="fill:#d26e7f;fill-opacity:1;"><g transform="translate(295.29267, 193.013959)"><path style="stroke:none" d="M 35.59375 -39.96875 C 37.6875 -37.820312 38.894531 -35.492188 39.21875 -32.984375 C 39.550781 -30.484375 39.054688 -28.171875 37.734375 -26.046875 C 36.410156 -23.929688 34.347656 -22.378906 31.546875 -21.390625 C 29.285156 -20.617188 26.929688 -20.082031 24.484375 -19.78125 C 22.035156 -19.476562 19.515625 -19.078125 16.921875 -18.578125 C 17.691406 -18.359375 18.4375 -18.125 19.15625 -17.875 C 19.875 -17.625 20.59375 -17.445312 21.3125 -17.34375 C 22.738281 -17.0625 24.179688 -16.851562 25.640625 -16.71875 C 27.097656 -16.582031 28.515625 -16.296875 29.890625 -15.859375 C 31.867188 -15.191406 33.066406 -14.070312 33.484375 -12.5 C 33.898438 -10.9375 33.363281 -9.410156 31.875 -7.921875 C 31.101562 -7.097656 30.140625 -6.367188 28.984375 -5.734375 C 27.828125 -5.109375 26.695312 -4.738281 25.59375 -4.625 C 20.53125 -4.125 16.265625 -4.769531 12.796875 -6.5625 C 9.328125 -8.351562 6.765625 -10.898438 5.109375 -14.203125 C 3.460938 -17.503906 2.804688 -21.191406 3.140625 -25.265625 C 3.359375 -27.796875 3.796875 -30.234375 4.453125 -32.578125 C 5.117188 -34.921875 6.164062 -37.164062 7.59375 -39.3125 C 9.414062 -42.113281 11.753906 -44.132812 14.609375 -45.375 C 17.472656 -46.613281 20.554688 -46.90625 23.859375 -46.25 C 28.546875 -45.414062 32.457031 -43.320312 35.59375 -39.96875 Z M 28.328125 -32.046875 C 28.429688 -32.046875 28.550781 -32.082031 28.6875 -32.15625 C 28.832031 -32.238281 29.015625 -32.335938 29.234375 -32.453125 C 28.179688 -33.941406 26.867188 -35 25.296875 -35.625 C 23.734375 -36.257812 22.265625 -36.382812 20.890625 -36 C 19.628906 -35.613281 18.691406 -34.96875 18.078125 -34.0625 C 17.472656 -33.15625 17.007812 -32.066406 16.6875 -30.796875 C 18.71875 -31.015625 20.695312 -31.21875 22.625 -31.40625 C 24.550781 -31.601562 26.453125 -31.816406 28.328125 -32.046875 Z M 28.328125 -32.046875 "/></g></g><g style="fill:#d26e7f;fill-opacity:1;"><g transform="translate(155.332744, 142.633527)"><path style="stroke:none" d="M 2.265625 -0.015625 C 1.960938 0.00390625 1.679688 -0.00390625 1.421875 -0.046875 C 1.160156 -0.0859375 0.9375 -0.191406 0.75 -0.359375 C 0.570312 -0.523438 0.445312 -0.769531 0.375 -1.09375 C 0.28125 -1.476562 0.222656 -1.878906 0.203125 -2.296875 C 0.191406 -2.722656 0.191406 -3.144531 0.203125 -3.5625 C 0.222656 -3.988281 0.222656 -4.398438 0.203125 -4.796875 C 0.203125 -5.015625 0.191406 -5.242188 0.171875 -5.484375 C 0.148438 -5.734375 0.148438 -5.976562 0.171875 -6.21875 C 0.191406 -6.457031 0.257812 -6.671875 0.375 -6.859375 C 0.476562 -7.023438 0.625 -7.144531 0.8125 -7.21875 C 1 -7.300781 1.203125 -7.351562 1.421875 -7.375 C 1.648438 -7.394531 1.875 -7.398438 2.09375 -7.390625 C 2.320312 -7.390625 2.519531 -7.390625 2.6875 -7.390625 C 2.914062 -7.398438 3.160156 -7.398438 3.421875 -7.390625 C 3.691406 -7.378906 3.945312 -7.34375 4.1875 -7.28125 C 4.4375 -7.226562 4.660156 -7.128906 4.859375 -6.984375 C 5.054688 -6.847656 5.207031 -6.648438 5.3125 -6.390625 C 5.425781 -6.109375 5.453125 -5.816406 5.390625 -5.515625 C 5.328125 -5.222656 5.207031 -4.941406 5.03125 -4.671875 C 4.863281 -4.410156 4.675781 -4.191406 4.46875 -4.015625 C 4.71875 -3.773438 4.882812 -3.484375 4.96875 -3.140625 C 5.050781 -2.796875 5.0625 -2.441406 5 -2.078125 C 4.9375 -1.722656 4.8125 -1.414062 4.625 -1.15625 C 4.351562 -0.78125 4 -0.507812 3.5625 -0.34375 C 3.132812 -0.175781 2.703125 -0.0664062 2.265625 -0.015625 Z M 1.8125 -4.75 C 1.832031 -4.738281 1.890625 -4.734375 1.984375 -4.734375 C 2.078125 -4.734375 2.171875 -4.738281 2.265625 -4.75 C 2.359375 -4.757812 2.414062 -4.765625 2.4375 -4.765625 C 2.582031 -4.773438 2.738281 -4.800781 2.90625 -4.84375 C 3.082031 -4.882812 3.210938 -4.976562 3.296875 -5.125 C 3.359375 -5.21875 3.351562 -5.300781 3.28125 -5.375 C 3.207031 -5.457031 3.097656 -5.519531 2.953125 -5.5625 C 2.804688 -5.613281 2.648438 -5.644531 2.484375 -5.65625 C 2.328125 -5.664062 2.179688 -5.65625 2.046875 -5.625 C 1.921875 -5.59375 1.84375 -5.535156 1.8125 -5.453125 C 1.800781 -5.429688 1.789062 -5.363281 1.78125 -5.25 C 1.78125 -5.144531 1.78125 -5.039062 1.78125 -4.9375 C 1.789062 -4.832031 1.800781 -4.769531 1.8125 -4.75 Z M 1.75 -1.5625 C 1.914062 -1.582031 2.101562 -1.613281 2.3125 -1.65625 C 2.53125 -1.707031 2.722656 -1.785156 2.890625 -1.890625 C 3.066406 -1.992188 3.179688 -2.144531 3.234375 -2.34375 C 3.273438 -2.53125 3.25 -2.671875 3.15625 -2.765625 C 3.070312 -2.859375 2.953125 -2.921875 2.796875 -2.953125 C 2.648438 -2.984375 2.507812 -2.992188 2.375 -2.984375 C 2.21875 -2.972656 2.085938 -2.957031 1.984375 -2.9375 C 1.890625 -2.914062 1.816406 -2.851562 1.765625 -2.75 C 1.722656 -2.675781 1.703125 -2.5625 1.703125 -2.40625 C 1.703125 -2.257812 1.710938 -2.101562 1.734375 -1.9375 C 1.753906 -1.78125 1.757812 -1.65625 1.75 -1.5625 Z M 1.75 -1.5625 "/></g></g><g style="fill:#d26e7f;fill-opacity:1;"><g transform="translate(160.899757, 142.633527)"><path style="stroke:none" d="M 0.796875 -0.0625 C 0.523438 -0.132812 0.34375 -0.257812 0.25 -0.4375 C 0.164062 -0.625 0.132812 -0.835938 0.15625 -1.078125 C 0.175781 -1.316406 0.21875 -1.554688 0.28125 -1.796875 C 0.351562 -2.035156 0.410156 -2.25 0.453125 -2.4375 C 0.578125 -2.957031 0.710938 -3.46875 0.859375 -3.96875 C 1.015625 -4.476562 1.175781 -4.984375 1.34375 -5.484375 C 1.476562 -5.910156 1.675781 -6.257812 1.9375 -6.53125 C 2.207031 -6.800781 2.582031 -6.941406 3.0625 -6.953125 C 3.332031 -6.960938 3.550781 -6.898438 3.71875 -6.765625 C 3.894531 -6.628906 4.035156 -6.453125 4.140625 -6.234375 C 4.253906 -6.015625 4.347656 -5.78125 4.421875 -5.53125 C 4.492188 -5.289062 4.566406 -5.070312 4.640625 -4.875 L 5.859375 -1.453125 C 5.941406 -1.234375 5.976562 -1.03125 5.96875 -0.84375 C 5.957031 -0.664062 5.851562 -0.492188 5.65625 -0.328125 C 5.457031 -0.171875 5.265625 -0.0976562 5.078125 -0.109375 C 4.890625 -0.128906 4.722656 -0.242188 4.578125 -0.453125 C 4.503906 -0.554688 4.445312 -0.6875 4.40625 -0.84375 C 4.363281 -1.007812 4.316406 -1.164062 4.265625 -1.3125 C 4.210938 -1.46875 4.140625 -1.582031 4.046875 -1.65625 C 4.023438 -1.664062 3.9375 -1.675781 3.78125 -1.6875 C 3.625 -1.707031 3.441406 -1.722656 3.234375 -1.734375 C 3.035156 -1.742188 2.851562 -1.742188 2.6875 -1.734375 C 2.519531 -1.734375 2.414062 -1.71875 2.375 -1.6875 C 2.28125 -1.601562 2.210938 -1.472656 2.171875 -1.296875 C 2.128906 -1.117188 2.09375 -0.929688 2.0625 -0.734375 C 2.03125 -0.546875 1.972656 -0.398438 1.890625 -0.296875 C 1.765625 -0.140625 1.597656 -0.046875 1.390625 -0.015625 C 1.179688 0.00390625 0.984375 -0.0078125 0.796875 -0.0625 Z M 2.84375 -3.15625 C 2.945312 -3.175781 3.046875 -3.195312 3.140625 -3.21875 C 3.234375 -3.238281 3.320312 -3.253906 3.40625 -3.265625 C 3.351562 -3.398438 3.304688 -3.535156 3.265625 -3.671875 C 3.222656 -3.816406 3.179688 -3.957031 3.140625 -4.09375 C 3.085938 -3.9375 3.035156 -3.78125 2.984375 -3.625 C 2.941406 -3.46875 2.894531 -3.3125 2.84375 -3.15625 Z M 2.84375 -3.15625 "/></g></g><g style="fill:#d26e7f;fill-opacity:1;"><g transform="translate(167.025539, 142.633527)"><path style="stroke:none" d="M 4.34375 -0.28125 C 4.101562 -0.0820312 3.875 0.0078125 3.65625 0 C 3.4375 -0.0078125 3.238281 -0.0859375 3.0625 -0.234375 C 2.894531 -0.390625 2.738281 -0.585938 2.59375 -0.828125 C 2.445312 -1.066406 2.316406 -1.320312 2.203125 -1.59375 C 2.085938 -1.875 1.984375 -2.132812 1.890625 -2.375 C 1.804688 -2.613281 1.726562 -2.8125 1.65625 -2.96875 C 1.625 -2.945312 1.609375 -2.867188 1.609375 -2.734375 C 1.609375 -2.597656 1.617188 -2.4375 1.640625 -2.25 C 1.660156 -2.070312 1.675781 -1.898438 1.6875 -1.734375 C 1.695312 -1.578125 1.703125 -1.46875 1.703125 -1.40625 C 1.679688 -1.269531 1.648438 -1.117188 1.609375 -0.953125 C 1.566406 -0.796875 1.5 -0.65625 1.40625 -0.53125 C 1.320312 -0.40625 1.195312 -0.328125 1.03125 -0.296875 C 0.820312 -0.253906 0.65625 -0.28125 0.53125 -0.375 C 0.414062 -0.46875 0.328125 -0.609375 0.265625 -0.796875 C 0.210938 -0.984375 0.175781 -1.191406 0.15625 -1.421875 C 0.144531 -1.660156 0.144531 -1.898438 0.15625 -2.140625 C 0.175781 -2.378906 0.191406 -2.597656 0.203125 -2.796875 C 0.222656 -2.992188 0.234375 -3.144531 0.234375 -3.25 C 0.242188 -3.59375 0.25 -3.9375 0.25 -4.28125 C 0.257812 -4.625 0.257812 -4.960938 0.25 -5.296875 C 0.25 -5.460938 0.253906 -5.644531 0.265625 -5.84375 C 0.285156 -6.050781 0.332031 -6.238281 0.40625 -6.40625 C 0.488281 -6.570312 0.628906 -6.6875 0.828125 -6.75 C 1.066406 -6.8125 1.253906 -6.804688 1.390625 -6.734375 C 1.523438 -6.660156 1.625 -6.539062 1.6875 -6.375 C 1.757812 -6.207031 1.800781 -6.007812 1.8125 -5.78125 C 1.832031 -5.5625 1.832031 -5.335938 1.8125 -5.109375 C 1.789062 -4.890625 1.757812 -4.6875 1.71875 -4.5 C 1.6875 -4.320312 1.660156 -4.179688 1.640625 -4.078125 C 1.691406 -4.140625 1.796875 -4.25 1.953125 -4.40625 C 2.109375 -4.5625 2.296875 -4.738281 2.515625 -4.9375 C 2.742188 -5.132812 2.984375 -5.332031 3.234375 -5.53125 C 3.484375 -5.726562 3.722656 -5.890625 3.953125 -6.015625 C 4.191406 -6.140625 4.40625 -6.207031 4.59375 -6.21875 C 4.78125 -6.238281 4.925781 -6.164062 5.03125 -6 C 5.144531 -5.800781 5.164062 -5.601562 5.09375 -5.40625 C 5.03125 -5.21875 4.898438 -5.035156 4.703125 -4.859375 C 4.515625 -4.679688 4.300781 -4.515625 4.0625 -4.359375 C 3.832031 -4.210938 3.613281 -4.082031 3.40625 -3.96875 C 3.195312 -3.851562 3.03125 -3.765625 2.90625 -3.703125 C 3.0625 -3.609375 3.238281 -3.457031 3.4375 -3.25 C 3.644531 -3.039062 3.84375 -2.800781 4.03125 -2.53125 C 4.21875 -2.257812 4.367188 -1.976562 4.484375 -1.6875 C 4.597656 -1.40625 4.648438 -1.140625 4.640625 -0.890625 C 4.640625 -0.640625 4.539062 -0.4375 4.34375 -0.28125 Z M 4.34375 -0.28125 "/></g></g><g style="fill:#d26e7f;fill-opacity:1;"><g transform="translate(172.302821, 142.633527)"><path style="stroke:none" d="M 1.71875 -0.015625 C 1.582031 -0.015625 1.429688 -0.0078125 1.265625 0 C 1.109375 0.0078125 0.957031 0 0.8125 -0.03125 C 0.664062 -0.0625 0.535156 -0.132812 0.421875 -0.25 C 0.296875 -0.375 0.21875 -0.519531 0.1875 -0.6875 C 0.15625 -0.863281 0.144531 -1.046875 0.15625 -1.234375 C 0.175781 -1.421875 0.191406 -1.59375 0.203125 -1.75 C 0.210938 -2.050781 0.222656 -2.347656 0.234375 -2.640625 C 0.253906 -2.929688 0.269531 -3.222656 0.28125 -3.515625 C 0.289062 -3.867188 0.304688 -4.21875 0.328125 -4.5625 C 0.347656 -4.914062 0.359375 -5.265625 0.359375 -5.609375 C 0.378906 -5.796875 0.378906 -6.003906 0.359375 -6.234375 C 0.347656 -6.472656 0.378906 -6.6875 0.453125 -6.875 C 0.503906 -7.050781 0.613281 -7.179688 0.78125 -7.265625 C 0.957031 -7.347656 1.160156 -7.398438 1.390625 -7.421875 C 1.617188 -7.453125 1.851562 -7.457031 2.09375 -7.4375 C 2.34375 -7.425781 2.578125 -7.40625 2.796875 -7.375 C 3.015625 -7.34375 3.191406 -7.316406 3.328125 -7.296875 C 3.484375 -7.273438 3.632812 -7.242188 3.78125 -7.203125 C 3.925781 -7.160156 4.046875 -7.09375 4.140625 -7 C 4.242188 -6.90625 4.304688 -6.765625 4.328125 -6.578125 C 4.359375 -6.378906 4.328125 -6.203125 4.234375 -6.046875 C 4.148438 -5.890625 4.015625 -5.773438 3.828125 -5.703125 C 3.691406 -5.640625 3.554688 -5.617188 3.421875 -5.640625 C 3.285156 -5.660156 3.144531 -5.6875 3 -5.71875 C 2.863281 -5.75 2.726562 -5.742188 2.59375 -5.703125 C 2.507812 -5.691406 2.425781 -5.632812 2.34375 -5.53125 C 2.269531 -5.4375 2.226562 -5.332031 2.21875 -5.21875 C 2.207031 -5.101562 2.257812 -5 2.375 -4.90625 C 2.457031 -4.84375 2.582031 -4.816406 2.75 -4.828125 C 2.914062 -4.835938 3.085938 -4.847656 3.265625 -4.859375 C 3.441406 -4.867188 3.585938 -4.851562 3.703125 -4.8125 C 3.878906 -4.75 4.003906 -4.660156 4.078125 -4.546875 C 4.148438 -4.429688 4.191406 -4.285156 4.203125 -4.109375 C 4.234375 -3.898438 4.210938 -3.6875 4.140625 -3.46875 C 4.078125 -3.25 3.929688 -3.101562 3.703125 -3.03125 C 3.554688 -3 3.40625 -3 3.25 -3.03125 C 3.09375 -3.070312 2.9375 -3.101562 2.78125 -3.125 C 2.632812 -3.144531 2.5 -3.097656 2.375 -2.984375 C 2.238281 -2.847656 2.179688 -2.722656 2.203125 -2.609375 C 2.222656 -2.503906 2.296875 -2.414062 2.421875 -2.34375 C 2.546875 -2.269531 2.679688 -2.210938 2.828125 -2.171875 C 2.984375 -2.128906 3.109375 -2.101562 3.203125 -2.09375 C 3.347656 -2.082031 3.503906 -2.082031 3.671875 -2.09375 C 3.847656 -2.101562 4.019531 -2.097656 4.1875 -2.078125 C 4.351562 -2.066406 4.5 -2.015625 4.625 -1.921875 C 4.738281 -1.835938 4.8125 -1.71875 4.84375 -1.5625 C 4.875 -1.414062 4.878906 -1.265625 4.859375 -1.109375 C 4.835938 -0.953125 4.804688 -0.8125 4.765625 -0.6875 C 4.660156 -0.4375 4.507812 -0.273438 4.3125 -0.203125 C 4.125 -0.128906 3.898438 -0.0859375 3.640625 -0.078125 C 3.316406 -0.0546875 2.992188 -0.046875 2.671875 -0.046875 C 2.359375 -0.046875 2.039062 -0.0351562 1.71875 -0.015625 Z M 1.71875 -0.015625 "/></g></g><g style="fill:#d26e7f;fill-opacity:1;"><g transform="translate(177.32141, 142.633527)"><path style="stroke:none" d="M 5.578125 -0.359375 C 5.347656 -0.128906 5.140625 -0.0078125 4.953125 0 C 4.773438 0.0078125 4.609375 -0.0507812 4.453125 -0.1875 C 4.304688 -0.320312 4.175781 -0.5 4.0625 -0.71875 C 3.957031 -0.9375 3.863281 -1.171875 3.78125 -1.421875 C 3.707031 -1.671875 3.644531 -1.90625 3.59375 -2.125 C 3.539062 -2.351562 3.503906 -2.53125 3.484375 -2.65625 C 3.421875 -2.644531 3.320312 -2.628906 3.1875 -2.609375 C 3.0625 -2.585938 2.9375 -2.5625 2.8125 -2.53125 C 2.6875 -2.507812 2.601562 -2.476562 2.5625 -2.4375 C 2.507812 -2.382812 2.476562 -2.285156 2.46875 -2.140625 C 2.46875 -2.003906 2.457031 -1.898438 2.4375 -1.828125 C 2.394531 -1.628906 2.34375 -1.425781 2.28125 -1.21875 C 2.226562 -1.007812 2.128906 -0.820312 1.984375 -0.65625 C 1.804688 -0.445312 1.601562 -0.320312 1.375 -0.28125 C 1.144531 -0.25 0.925781 -0.289062 0.71875 -0.40625 C 0.519531 -0.53125 0.375 -0.722656 0.28125 -0.984375 C 0.175781 -1.265625 0.132812 -1.578125 0.15625 -1.921875 C 0.175781 -2.265625 0.210938 -2.609375 0.265625 -2.953125 C 0.328125 -3.304688 0.367188 -3.628906 0.390625 -3.921875 C 0.429688 -4.398438 0.441406 -4.890625 0.421875 -5.390625 C 0.398438 -5.890625 0.425781 -6.375 0.5 -6.84375 C 0.539062 -7.125 0.65625 -7.347656 0.84375 -7.515625 C 1.03125 -7.691406 1.265625 -7.8125 1.546875 -7.875 C 1.828125 -7.945312 2.128906 -7.984375 2.453125 -7.984375 C 2.773438 -7.984375 3.097656 -7.953125 3.421875 -7.890625 C 3.742188 -7.828125 4.039062 -7.742188 4.3125 -7.640625 C 4.582031 -7.535156 4.800781 -7.429688 4.96875 -7.328125 C 5.332031 -7.085938 5.59375 -6.804688 5.75 -6.484375 C 5.914062 -6.171875 5.988281 -5.84375 5.96875 -5.5 C 5.957031 -5.15625 5.863281 -4.816406 5.6875 -4.484375 C 5.507812 -4.148438 5.28125 -3.847656 5 -3.578125 C 5.113281 -3.378906 5.25 -3.140625 5.40625 -2.859375 C 5.5625 -2.585938 5.691406 -2.296875 5.796875 -1.984375 C 5.898438 -1.679688 5.945312 -1.382812 5.9375 -1.09375 C 5.925781 -0.8125 5.804688 -0.566406 5.578125 -0.359375 Z M 2.390625 -3.953125 C 2.585938 -4.035156 2.785156 -4.117188 2.984375 -4.203125 C 3.179688 -4.296875 3.363281 -4.40625 3.53125 -4.53125 C 3.757812 -4.6875 3.882812 -4.84375 3.90625 -5 C 3.9375 -5.15625 3.898438 -5.296875 3.796875 -5.421875 C 3.691406 -5.546875 3.550781 -5.644531 3.375 -5.71875 C 3.195312 -5.789062 3.007812 -5.820312 2.8125 -5.8125 C 2.664062 -5.800781 2.539062 -5.785156 2.4375 -5.765625 C 2.34375 -5.742188 2.273438 -5.664062 2.234375 -5.53125 C 2.191406 -5.40625 2.179688 -5.242188 2.203125 -5.046875 C 2.222656 -4.847656 2.253906 -4.648438 2.296875 -4.453125 C 2.347656 -4.265625 2.378906 -4.097656 2.390625 -3.953125 Z M 2.390625 -3.953125 "/></g></g><g style="fill:#d26e7f;fill-opacity:1;"><g transform="translate(183.436846, 142.633527)"><path style="stroke:none" d="M 2.9375 -0.296875 C 2.851562 -0.128906 2.71875 -0.0234375 2.53125 0.015625 C 2.351562 0.0546875 2.160156 0.0351562 1.953125 -0.046875 C 1.753906 -0.128906 1.585938 -0.265625 1.453125 -0.453125 C 1.335938 -0.640625 1.265625 -0.863281 1.234375 -1.125 C 1.203125 -1.394531 1.195312 -1.675781 1.21875 -1.96875 C 1.238281 -2.257812 1.257812 -2.546875 1.28125 -2.828125 C 1.300781 -3.109375 1.300781 -3.347656 1.28125 -3.546875 C 1.238281 -3.828125 1.144531 -4.09375 1 -4.34375 C 0.851562 -4.59375 0.695312 -4.84375 0.53125 -5.09375 C 0.375 -5.351562 0.265625 -5.625 0.203125 -5.90625 C 0.140625 -6.15625 0.144531 -6.390625 0.21875 -6.609375 C 0.300781 -6.828125 0.441406 -6.972656 0.640625 -7.046875 C 0.835938 -7.128906 1.070312 -7.101562 1.34375 -6.96875 C 1.582031 -6.851562 1.765625 -6.679688 1.890625 -6.453125 C 2.015625 -6.222656 2.117188 -5.976562 2.203125 -5.71875 C 2.285156 -5.457031 2.375 -5.21875 2.46875 -5 C 2.53125 -5.113281 2.609375 -5.257812 2.703125 -5.4375 C 2.796875 -5.625 2.894531 -5.8125 3 -6 C 3.101562 -6.195312 3.21875 -6.367188 3.34375 -6.515625 C 3.476562 -6.671875 3.625 -6.773438 3.78125 -6.828125 C 3.9375 -6.890625 4.109375 -6.875 4.296875 -6.78125 C 4.453125 -6.71875 4.550781 -6.617188 4.59375 -6.484375 C 4.632812 -6.347656 4.640625 -6.203125 4.609375 -6.046875 C 4.585938 -5.890625 4.546875 -5.734375 4.484375 -5.578125 C 4.429688 -5.429688 4.378906 -5.304688 4.328125 -5.203125 C 4.242188 -5.003906 4.140625 -4.8125 4.015625 -4.625 C 3.898438 -4.445312 3.785156 -4.269531 3.671875 -4.09375 C 3.546875 -3.914062 3.457031 -3.765625 3.40625 -3.640625 C 3.351562 -3.515625 3.320312 -3.382812 3.3125 -3.25 C 3.3125 -3.125 3.328125 -2.945312 3.359375 -2.71875 C 3.378906 -2.375 3.394531 -2.050781 3.40625 -1.75 C 3.414062 -1.445312 3.382812 -1.171875 3.3125 -0.921875 C 3.25 -0.679688 3.125 -0.472656 2.9375 -0.296875 Z M 2.9375 -0.296875 "/></g></g><g style="fill:#d26e7f;fill-opacity:1;"><g transform="translate(190.653244, 142.628237)"><path style="stroke:none" d="M 1.734375 -0.0625 C 1.578125 -0.09375 1.40625 -0.125 1.21875 -0.15625 C 1.039062 -0.195312 0.867188 -0.253906 0.703125 -0.328125 C 0.535156 -0.410156 0.398438 -0.519531 0.296875 -0.65625 C 0.171875 -0.851562 0.125 -1.03125 0.15625 -1.1875 C 0.1875 -1.34375 0.273438 -1.46875 0.421875 -1.5625 C 0.578125 -1.664062 0.753906 -1.710938 0.953125 -1.703125 C 1.078125 -1.703125 1.210938 -1.671875 1.359375 -1.609375 C 1.515625 -1.554688 1.671875 -1.503906 1.828125 -1.453125 C 1.984375 -1.410156 2.128906 -1.398438 2.265625 -1.421875 C 2.410156 -1.453125 2.53125 -1.550781 2.625 -1.71875 C 2.738281 -1.894531 2.753906 -2.050781 2.671875 -2.1875 C 2.597656 -2.332031 2.484375 -2.457031 2.328125 -2.5625 C 2.171875 -2.664062 2.023438 -2.75 1.890625 -2.8125 C 1.359375 -3.0625 0.96875 -3.398438 0.71875 -3.828125 C 0.476562 -4.253906 0.398438 -4.765625 0.484375 -5.359375 C 0.566406 -5.953125 0.804688 -6.460938 1.203125 -6.890625 C 1.597656 -7.328125 2.082031 -7.628906 2.65625 -7.796875 C 2.925781 -7.878906 3.222656 -7.921875 3.546875 -7.921875 C 3.878906 -7.929688 4.175781 -7.859375 4.4375 -7.703125 C 4.582031 -7.609375 4.691406 -7.484375 4.765625 -7.328125 C 4.847656 -7.171875 4.867188 -7.019531 4.828125 -6.875 C 4.785156 -6.726562 4.660156 -6.617188 4.453125 -6.546875 C 4.222656 -6.472656 3.992188 -6.375 3.765625 -6.25 C 3.546875 -6.132812 3.347656 -5.992188 3.171875 -5.828125 C 3.003906 -5.671875 2.878906 -5.5 2.796875 -5.3125 C 2.722656 -5.125 2.71875 -4.925781 2.78125 -4.71875 C 2.84375 -4.507812 3.003906 -4.296875 3.265625 -4.078125 C 3.421875 -3.941406 3.582031 -3.816406 3.75 -3.703125 C 3.914062 -3.585938 4.070312 -3.460938 4.21875 -3.328125 C 4.363281 -3.191406 4.484375 -3.019531 4.578125 -2.8125 C 4.691406 -2.5625 4.753906 -2.285156 4.765625 -1.984375 C 4.773438 -1.679688 4.722656 -1.394531 4.609375 -1.125 C 4.492188 -0.84375 4.328125 -0.617188 4.109375 -0.453125 C 3.898438 -0.285156 3.660156 -0.164062 3.390625 -0.09375 C 3.128906 -0.03125 2.851562 0 2.5625 0 C 2.28125 0 2.003906 -0.0195312 1.734375 -0.0625 Z M 1.734375 -0.0625 "/></g></g><g style="fill:#d26e7f;fill-opacity:1;"><g transform="translate(195.652973, 142.628237)"><path style="stroke:none" d="M 2.578125 0 C 2.378906 0 2.222656 -0.046875 2.109375 -0.140625 C 1.992188 -0.242188 1.910156 -0.375 1.859375 -0.53125 C 1.804688 -0.6875 1.773438 -0.847656 1.765625 -1.015625 C 1.753906 -1.191406 1.753906 -1.351562 1.765625 -1.5 C 1.785156 -2.082031 1.816406 -2.660156 1.859375 -3.234375 C 1.898438 -3.804688 1.910156 -4.390625 1.890625 -4.984375 C 1.703125 -4.972656 1.5 -4.960938 1.28125 -4.953125 C 1.0625 -4.953125 0.859375 -4.988281 0.671875 -5.0625 C 0.484375 -5.132812 0.335938 -5.269531 0.234375 -5.46875 C 0.140625 -5.675781 0.125 -5.882812 0.1875 -6.09375 C 0.257812 -6.3125 0.398438 -6.46875 0.609375 -6.5625 C 0.765625 -6.632812 0.960938 -6.660156 1.203125 -6.640625 C 1.441406 -6.628906 1.679688 -6.601562 1.921875 -6.5625 C 2.171875 -6.519531 2.382812 -6.492188 2.5625 -6.484375 C 2.851562 -6.472656 3.164062 -6.46875 3.5 -6.46875 C 3.832031 -6.476562 4.140625 -6.414062 4.421875 -6.28125 C 4.546875 -6.226562 4.648438 -6.140625 4.734375 -6.015625 C 4.816406 -5.898438 4.863281 -5.773438 4.875 -5.640625 C 4.894531 -5.503906 4.859375 -5.375 4.765625 -5.25 C 4.671875 -5.132812 4.53125 -5.054688 4.34375 -5.015625 C 4.164062 -4.972656 3.976562 -4.953125 3.78125 -4.953125 C 3.582031 -4.960938 3.410156 -4.96875 3.265625 -4.96875 C 3.285156 -4.832031 3.320312 -4.613281 3.375 -4.3125 C 3.425781 -4.019531 3.472656 -3.6875 3.515625 -3.3125 C 3.554688 -2.945312 3.582031 -2.570312 3.59375 -2.1875 C 3.601562 -1.800781 3.578125 -1.441406 3.515625 -1.109375 C 3.460938 -0.785156 3.363281 -0.519531 3.21875 -0.3125 C 3.070312 -0.113281 2.859375 -0.0078125 2.578125 0 Z M 2.578125 0 "/></g></g><g style="fill:#d26e7f;fill-opacity:1;"><g transform="translate(200.538364, 142.628237)"><path style="stroke:none" d="M 3.453125 -0.171875 C 3.160156 -0.0546875 2.84375 0 2.5 0 C 2.164062 0 1.859375 -0.0625 1.578125 -0.1875 C 1.222656 -0.34375 0.972656 -0.5625 0.828125 -0.84375 C 0.679688 -1.132812 0.554688 -1.453125 0.453125 -1.796875 C 0.328125 -2.191406 0.238281 -2.601562 0.1875 -3.03125 C 0.132812 -3.46875 0.144531 -3.882812 0.21875 -4.28125 C 0.289062 -4.6875 0.445312 -5.046875 0.6875 -5.359375 C 0.925781 -5.679688 1.28125 -5.925781 1.75 -6.09375 C 2.226562 -6.269531 2.691406 -6.316406 3.140625 -6.234375 C 3.585938 -6.160156 3.96875 -5.96875 4.28125 -5.65625 C 4.601562 -5.351562 4.816406 -4.941406 4.921875 -4.421875 C 4.984375 -4.066406 5.015625 -3.675781 5.015625 -3.25 C 5.015625 -2.832031 4.96875 -2.414062 4.875 -2 C 4.78125 -1.582031 4.617188 -1.207031 4.390625 -0.875 C 4.160156 -0.550781 3.847656 -0.316406 3.453125 -0.171875 Z M 2.1875 -1.5625 C 2.382812 -1.363281 2.566406 -1.269531 2.734375 -1.28125 C 2.910156 -1.289062 3.054688 -1.367188 3.171875 -1.515625 C 3.296875 -1.671875 3.390625 -1.847656 3.453125 -2.046875 C 3.484375 -2.179688 3.515625 -2.359375 3.546875 -2.578125 C 3.578125 -2.796875 3.59375 -3.023438 3.59375 -3.265625 C 3.59375 -3.503906 3.5625 -3.722656 3.5 -3.921875 C 3.4375 -4.117188 3.332031 -4.257812 3.1875 -4.34375 C 3.039062 -4.425781 2.878906 -4.429688 2.703125 -4.359375 C 2.535156 -4.296875 2.378906 -4.195312 2.234375 -4.0625 C 2.097656 -3.9375 2.007812 -3.8125 1.96875 -3.6875 C 1.925781 -3.550781 1.894531 -3.382812 1.875 -3.1875 C 1.851562 -3 1.847656 -2.796875 1.859375 -2.578125 C 1.867188 -2.367188 1.898438 -2.171875 1.953125 -1.984375 C 2.003906 -1.804688 2.082031 -1.664062 2.1875 -1.5625 Z M 2.1875 -1.5625 "/></g></g><g style="fill:#d26e7f;fill-opacity:1;"><g transform="translate(205.714801, 142.628237)"><path style="stroke:none" d="M 5.59375 -0.359375 C 5.363281 -0.128906 5.15625 -0.0078125 4.96875 0 C 4.789062 0.0078125 4.625 -0.0507812 4.46875 -0.1875 C 4.320312 -0.320312 4.191406 -0.5 4.078125 -0.71875 C 3.972656 -0.9375 3.878906 -1.171875 3.796875 -1.421875 C 3.710938 -1.679688 3.644531 -1.921875 3.59375 -2.140625 C 3.550781 -2.367188 3.515625 -2.546875 3.484375 -2.671875 C 3.429688 -2.660156 3.335938 -2.644531 3.203125 -2.625 C 3.066406 -2.601562 2.9375 -2.578125 2.8125 -2.546875 C 2.6875 -2.515625 2.601562 -2.476562 2.5625 -2.4375 C 2.519531 -2.394531 2.492188 -2.300781 2.484375 -2.15625 C 2.472656 -2.007812 2.460938 -1.90625 2.453125 -1.84375 C 2.398438 -1.632812 2.34375 -1.425781 2.28125 -1.21875 C 2.226562 -1.019531 2.132812 -0.835938 2 -0.671875 C 1.8125 -0.453125 1.601562 -0.320312 1.375 -0.28125 C 1.144531 -0.25 0.925781 -0.296875 0.71875 -0.421875 C 0.519531 -0.546875 0.375 -0.734375 0.28125 -0.984375 C 0.175781 -1.265625 0.132812 -1.578125 0.15625 -1.921875 C 0.175781 -2.273438 0.210938 -2.625 0.265625 -2.96875 C 0.328125 -3.320312 0.367188 -3.644531 0.390625 -3.9375 C 0.429688 -4.414062 0.441406 -4.90625 0.421875 -5.40625 C 0.398438 -5.90625 0.425781 -6.390625 0.5 -6.859375 C 0.550781 -7.148438 0.664062 -7.378906 0.84375 -7.546875 C 1.03125 -7.710938 1.265625 -7.832031 1.546875 -7.90625 C 1.828125 -7.976562 2.128906 -8.007812 2.453125 -8 C 2.785156 -8 3.113281 -7.96875 3.4375 -7.90625 C 3.757812 -7.84375 4.054688 -7.757812 4.328125 -7.65625 C 4.597656 -7.5625 4.816406 -7.457031 4.984375 -7.34375 C 5.347656 -7.113281 5.609375 -6.835938 5.765625 -6.515625 C 5.929688 -6.191406 6.003906 -5.859375 5.984375 -5.515625 C 5.972656 -5.171875 5.878906 -4.828125 5.703125 -4.484375 C 5.523438 -4.148438 5.296875 -3.847656 5.015625 -3.578125 C 5.128906 -3.390625 5.265625 -3.15625 5.421875 -2.875 C 5.578125 -2.601562 5.707031 -2.3125 5.8125 -2 C 5.914062 -1.6875 5.960938 -1.382812 5.953125 -1.09375 C 5.941406 -0.8125 5.820312 -0.566406 5.59375 -0.359375 Z M 2.40625 -3.96875 C 2.601562 -4.039062 2.796875 -4.125 2.984375 -4.21875 C 3.179688 -4.3125 3.367188 -4.421875 3.546875 -4.546875 C 3.773438 -4.703125 3.898438 -4.859375 3.921875 -5.015625 C 3.953125 -5.171875 3.914062 -5.3125 3.8125 -5.4375 C 3.707031 -5.5625 3.5625 -5.660156 3.375 -5.734375 C 3.195312 -5.804688 3.015625 -5.835938 2.828125 -5.828125 C 2.671875 -5.816406 2.539062 -5.800781 2.4375 -5.78125 C 2.34375 -5.757812 2.273438 -5.679688 2.234375 -5.546875 C 2.191406 -5.421875 2.179688 -5.257812 2.203125 -5.0625 C 2.234375 -4.863281 2.269531 -4.664062 2.3125 -4.46875 C 2.351562 -4.269531 2.382812 -4.101562 2.40625 -3.96875 Z M 2.40625 -3.96875 "/></g></g><g style="fill:#d26e7f;fill-opacity:1;"><g transform="translate(211.857921, 142.628237)"><path style="stroke:none" d="M 1.71875 -0.015625 C 1.582031 -0.015625 1.429688 -0.0078125 1.265625 0 C 1.109375 0.0078125 0.957031 0 0.8125 -0.03125 C 0.664062 -0.0625 0.535156 -0.132812 0.421875 -0.25 C 0.296875 -0.375 0.21875 -0.519531 0.1875 -0.6875 C 0.15625 -0.863281 0.144531 -1.046875 0.15625 -1.234375 C 0.175781 -1.429688 0.191406 -1.601562 0.203125 -1.75 C 0.210938 -2.050781 0.222656 -2.347656 0.234375 -2.640625 C 0.253906 -2.941406 0.269531 -3.238281 0.28125 -3.53125 C 0.289062 -3.875 0.304688 -4.222656 0.328125 -4.578125 C 0.347656 -4.929688 0.359375 -5.28125 0.359375 -5.625 C 0.378906 -5.8125 0.378906 -6.023438 0.359375 -6.265625 C 0.347656 -6.503906 0.378906 -6.71875 0.453125 -6.90625 C 0.515625 -7.070312 0.628906 -7.195312 0.796875 -7.28125 C 0.960938 -7.375 1.160156 -7.429688 1.390625 -7.453125 C 1.617188 -7.472656 1.851562 -7.472656 2.09375 -7.453125 C 2.34375 -7.441406 2.578125 -7.421875 2.796875 -7.390625 C 3.015625 -7.359375 3.191406 -7.332031 3.328125 -7.3125 C 3.492188 -7.289062 3.648438 -7.257812 3.796875 -7.21875 C 3.941406 -7.175781 4.0625 -7.109375 4.15625 -7.015625 C 4.257812 -6.921875 4.320312 -6.78125 4.34375 -6.59375 C 4.375 -6.40625 4.34375 -6.226562 4.25 -6.0625 C 4.15625 -5.90625 4.019531 -5.789062 3.84375 -5.71875 C 3.707031 -5.65625 3.566406 -5.632812 3.421875 -5.65625 C 3.285156 -5.675781 3.148438 -5.703125 3.015625 -5.734375 C 2.878906 -5.765625 2.742188 -5.757812 2.609375 -5.71875 C 2.523438 -5.707031 2.441406 -5.648438 2.359375 -5.546875 C 2.273438 -5.453125 2.226562 -5.347656 2.21875 -5.234375 C 2.207031 -5.117188 2.257812 -5.015625 2.375 -4.921875 C 2.46875 -4.859375 2.597656 -4.832031 2.765625 -4.84375 C 2.929688 -4.851562 3.101562 -4.863281 3.28125 -4.875 C 3.457031 -4.882812 3.597656 -4.867188 3.703125 -4.828125 C 3.890625 -4.765625 4.019531 -4.675781 4.09375 -4.5625 C 4.164062 -4.445312 4.207031 -4.300781 4.21875 -4.125 C 4.25 -3.90625 4.226562 -3.6875 4.15625 -3.46875 C 4.082031 -3.25 3.929688 -3.109375 3.703125 -3.046875 C 3.566406 -3.015625 3.421875 -3.015625 3.265625 -3.046875 C 3.109375 -3.085938 2.953125 -3.113281 2.796875 -3.125 C 2.640625 -3.144531 2.503906 -3.101562 2.390625 -3 C 2.242188 -2.851562 2.179688 -2.726562 2.203125 -2.625 C 2.234375 -2.519531 2.3125 -2.425781 2.4375 -2.34375 C 2.5625 -2.269531 2.695312 -2.210938 2.84375 -2.171875 C 2.988281 -2.128906 3.109375 -2.101562 3.203125 -2.09375 C 3.347656 -2.09375 3.507812 -2.097656 3.6875 -2.109375 C 3.863281 -2.117188 4.035156 -2.113281 4.203125 -2.09375 C 4.367188 -2.070312 4.515625 -2.015625 4.640625 -1.921875 C 4.753906 -1.835938 4.828125 -1.71875 4.859375 -1.5625 C 4.890625 -1.414062 4.894531 -1.265625 4.875 -1.109375 C 4.851562 -0.953125 4.820312 -0.816406 4.78125 -0.703125 C 4.675781 -0.441406 4.523438 -0.273438 4.328125 -0.203125 C 4.140625 -0.128906 3.910156 -0.0859375 3.640625 -0.078125 C 3.328125 -0.0546875 3.007812 -0.046875 2.6875 -0.046875 C 2.375 -0.046875 2.050781 -0.0351562 1.71875 -0.015625 Z M 1.71875 -0.015625 "/></g></g><g style="fill:#d26e7f;fill-opacity:1;"><g transform="translate(219.13099, 142.633527)"><path style="stroke:none" d="M 1.71875 -0.015625 C 1.582031 -0.015625 1.429688 -0.0078125 1.265625 0 C 1.109375 0.0078125 0.957031 0 0.8125 -0.03125 C 0.664062 -0.0625 0.535156 -0.132812 0.421875 -0.25 C 0.296875 -0.375 0.21875 -0.519531 0.1875 -0.6875 C 0.15625 -0.863281 0.144531 -1.046875 0.15625 -1.234375 C 0.175781 -1.421875 0.191406 -1.59375 0.203125 -1.75 C 0.210938 -2.050781 0.222656 -2.347656 0.234375 -2.640625 C 0.253906 -2.929688 0.269531 -3.222656 0.28125 -3.515625 C 0.289062 -3.867188 0.304688 -4.21875 0.328125 -4.5625 C 0.347656 -4.914062 0.359375 -5.265625 0.359375 -5.609375 C 0.378906 -5.796875 0.378906 -6.003906 0.359375 -6.234375 C 0.347656 -6.472656 0.378906 -6.6875 0.453125 -6.875 C 0.503906 -7.050781 0.613281 -7.179688 0.78125 -7.265625 C 0.957031 -7.347656 1.160156 -7.398438 1.390625 -7.421875 C 1.617188 -7.453125 1.851562 -7.457031 2.09375 -7.4375 C 2.34375 -7.425781 2.578125 -7.40625 2.796875 -7.375 C 3.015625 -7.34375 3.191406 -7.316406 3.328125 -7.296875 C 3.484375 -7.273438 3.632812 -7.242188 3.78125 -7.203125 C 3.925781 -7.160156 4.046875 -7.09375 4.140625 -7 C 4.242188 -6.90625 4.304688 -6.765625 4.328125 -6.578125 C 4.359375 -6.378906 4.328125 -6.203125 4.234375 -6.046875 C 4.148438 -5.890625 4.015625 -5.773438 3.828125 -5.703125 C 3.691406 -5.640625 3.554688 -5.617188 3.421875 -5.640625 C 3.285156 -5.660156 3.144531 -5.6875 3 -5.71875 C 2.863281 -5.75 2.726562 -5.742188 2.59375 -5.703125 C 2.507812 -5.691406 2.425781 -5.632812 2.34375 -5.53125 C 2.269531 -5.4375 2.226562 -5.332031 2.21875 -5.21875 C 2.207031 -5.101562 2.257812 -5 2.375 -4.90625 C 2.457031 -4.84375 2.582031 -4.816406 2.75 -4.828125 C 2.914062 -4.835938 3.085938 -4.847656 3.265625 -4.859375 C 3.441406 -4.867188 3.585938 -4.851562 3.703125 -4.8125 C 3.878906 -4.75 4.003906 -4.660156 4.078125 -4.546875 C 4.148438 -4.429688 4.191406 -4.285156 4.203125 -4.109375 C 4.234375 -3.898438 4.210938 -3.6875 4.140625 -3.46875 C 4.078125 -3.25 3.929688 -3.101562 3.703125 -3.03125 C 3.554688 -3 3.40625 -3 3.25 -3.03125 C 3.09375 -3.070312 2.9375 -3.101562 2.78125 -3.125 C 2.632812 -3.144531 2.5 -3.097656 2.375 -2.984375 C 2.238281 -2.847656 2.179688 -2.722656 2.203125 -2.609375 C 2.222656 -2.503906 2.296875 -2.414062 2.421875 -2.34375 C 2.546875 -2.269531 2.679688 -2.210938 2.828125 -2.171875 C 2.984375 -2.128906 3.109375 -2.101562 3.203125 -2.09375 C 3.347656 -2.082031 3.503906 -2.082031 3.671875 -2.09375 C 3.847656 -2.101562 4.019531 -2.097656 4.1875 -2.078125 C 4.351562 -2.066406 4.5 -2.015625 4.625 -1.921875 C 4.738281 -1.835938 4.8125 -1.71875 4.84375 -1.5625 C 4.875 -1.414062 4.878906 -1.265625 4.859375 -1.109375 C 4.835938 -0.953125 4.804688 -0.8125 4.765625 -0.6875 C 4.660156 -0.4375 4.507812 -0.273438 4.3125 -0.203125 C 4.125 -0.128906 3.898438 -0.0859375 3.640625 -0.078125 C 3.316406 -0.0546875 2.992188 -0.046875 2.671875 -0.046875 C 2.359375 -0.046875 2.039062 -0.0351562 1.71875 -0.015625 Z M 1.71875 -0.015625 "/></g></g><g style="fill:#d26e7f;fill-opacity:1;"><g transform="translate(224.149579, 142.633527)"><path style="stroke:none" d="M 1.734375 -0.0625 C 1.578125 -0.09375 1.40625 -0.125 1.21875 -0.15625 C 1.03125 -0.195312 0.851562 -0.253906 0.6875 -0.328125 C 0.53125 -0.410156 0.398438 -0.519531 0.296875 -0.65625 C 0.171875 -0.84375 0.125 -1.015625 0.15625 -1.171875 C 0.1875 -1.335938 0.273438 -1.46875 0.421875 -1.5625 C 0.578125 -1.65625 0.753906 -1.703125 0.953125 -1.703125 C 1.078125 -1.703125 1.210938 -1.671875 1.359375 -1.609375 C 1.515625 -1.554688 1.671875 -1.503906 1.828125 -1.453125 C 1.984375 -1.410156 2.128906 -1.398438 2.265625 -1.421875 C 2.398438 -1.441406 2.519531 -1.535156 2.625 -1.703125 C 2.726562 -1.890625 2.738281 -2.050781 2.65625 -2.1875 C 2.582031 -2.332031 2.46875 -2.453125 2.3125 -2.546875 C 2.15625 -2.648438 2.015625 -2.734375 1.890625 -2.796875 C 1.359375 -3.054688 0.96875 -3.394531 0.71875 -3.8125 C 0.476562 -4.238281 0.398438 -4.75 0.484375 -5.34375 C 0.566406 -5.9375 0.804688 -6.445312 1.203125 -6.875 C 1.597656 -7.3125 2.078125 -7.609375 2.640625 -7.765625 C 2.921875 -7.847656 3.222656 -7.894531 3.546875 -7.90625 C 3.878906 -7.914062 4.171875 -7.835938 4.421875 -7.671875 C 4.566406 -7.585938 4.675781 -7.46875 4.75 -7.3125 C 4.832031 -7.15625 4.851562 -7 4.8125 -6.84375 C 4.769531 -6.695312 4.644531 -6.59375 4.4375 -6.53125 C 4.21875 -6.457031 3.992188 -6.359375 3.765625 -6.234375 C 3.535156 -6.117188 3.332031 -5.976562 3.15625 -5.8125 C 2.988281 -5.65625 2.867188 -5.484375 2.796875 -5.296875 C 2.722656 -5.109375 2.71875 -4.910156 2.78125 -4.703125 C 2.84375 -4.492188 3 -4.285156 3.25 -4.078125 C 3.40625 -3.929688 3.566406 -3.800781 3.734375 -3.6875 C 3.898438 -3.570312 4.054688 -3.445312 4.203125 -3.3125 C 4.347656 -3.1875 4.46875 -3.019531 4.5625 -2.8125 C 4.675781 -2.550781 4.738281 -2.269531 4.75 -1.96875 C 4.757812 -1.664062 4.707031 -1.382812 4.59375 -1.125 C 4.476562 -0.84375 4.3125 -0.617188 4.09375 -0.453125 C 3.882812 -0.285156 3.644531 -0.164062 3.375 -0.09375 C 3.113281 -0.03125 2.84375 0 2.5625 0 C 2.28125 0 2.003906 -0.0195312 1.734375 -0.0625 Z M 1.734375 -0.0625 "/></g></g><g style="fill:#d26e7f;fill-opacity:1;"><g transform="translate(229.126774, 142.633527)"><path style="stroke:none" d="M 2.5625 0 C 2.363281 0 2.207031 -0.046875 2.09375 -0.140625 C 1.976562 -0.242188 1.894531 -0.367188 1.84375 -0.515625 C 1.789062 -0.671875 1.757812 -0.835938 1.75 -1.015625 C 1.75 -1.191406 1.753906 -1.347656 1.765625 -1.484375 C 1.785156 -2.066406 1.816406 -2.644531 1.859375 -3.21875 C 1.898438 -3.789062 1.910156 -4.375 1.890625 -4.96875 C 1.703125 -4.957031 1.5 -4.945312 1.28125 -4.9375 C 1.0625 -4.9375 0.859375 -4.972656 0.671875 -5.046875 C 0.484375 -5.117188 0.335938 -5.253906 0.234375 -5.453125 C 0.140625 -5.660156 0.125 -5.867188 0.1875 -6.078125 C 0.257812 -6.296875 0.394531 -6.445312 0.59375 -6.53125 C 0.757812 -6.613281 0.957031 -6.644531 1.1875 -6.625 C 1.425781 -6.601562 1.671875 -6.570312 1.921875 -6.53125 C 2.171875 -6.5 2.378906 -6.476562 2.546875 -6.46875 C 2.847656 -6.445312 3.160156 -6.441406 3.484375 -6.453125 C 3.816406 -6.460938 4.125 -6.398438 4.40625 -6.265625 C 4.53125 -6.210938 4.632812 -6.125 4.71875 -6 C 4.800781 -5.882812 4.847656 -5.757812 4.859375 -5.625 C 4.878906 -5.488281 4.84375 -5.359375 4.75 -5.234375 C 4.65625 -5.117188 4.515625 -5.039062 4.328125 -5 C 4.148438 -4.957031 3.960938 -4.9375 3.765625 -4.9375 C 3.566406 -4.945312 3.398438 -4.953125 3.265625 -4.953125 C 3.285156 -4.816406 3.316406 -4.597656 3.359375 -4.296875 C 3.410156 -4.003906 3.457031 -3.671875 3.5 -3.296875 C 3.550781 -2.929688 3.578125 -2.554688 3.578125 -2.171875 C 3.585938 -1.796875 3.5625 -1.441406 3.5 -1.109375 C 3.445312 -0.785156 3.347656 -0.519531 3.203125 -0.3125 C 3.054688 -0.113281 2.84375 -0.0078125 2.5625 0 Z M 2.5625 0 "/></g></g><g style="fill:#d26e7f;fill-opacity:1;"><g transform="translate(233.990147, 142.633527)"><path style="stroke:none" d="M 0.203125 -0.296875 C 0.140625 -0.453125 0.132812 -0.601562 0.1875 -0.75 C 0.25 -0.894531 0.34375 -1.015625 0.46875 -1.109375 C 0.59375 -1.203125 0.726562 -1.25 0.875 -1.25 C 1.019531 -1.25 1.144531 -1.164062 1.25 -1 C 1.351562 -0.894531 1.394531 -0.78125 1.375 -0.65625 C 1.351562 -0.53125 1.296875 -0.410156 1.203125 -0.296875 C 1.109375 -0.191406 0.992188 -0.109375 0.859375 -0.046875 C 0.734375 0.00390625 0.609375 0.015625 0.484375 -0.015625 C 0.367188 -0.046875 0.273438 -0.140625 0.203125 -0.296875 Z M 0.203125 -0.296875 "/></g></g><g style="fill:#d26e7f;fill-opacity:1;"><g transform="translate(235.521595, 142.633527)"><path style="stroke:none" d="M 3.515625 -0.140625 C 3.359375 -0.128906 3.160156 -0.109375 2.921875 -0.078125 C 2.679688 -0.046875 2.425781 -0.0195312 2.15625 0 C 1.882812 0.0078125 1.617188 0.00390625 1.359375 -0.015625 C 1.109375 -0.0351562 0.882812 -0.0859375 0.6875 -0.171875 C 0.488281 -0.265625 0.347656 -0.394531 0.265625 -0.5625 C 0.148438 -0.769531 0.113281 -0.972656 0.15625 -1.171875 C 0.207031 -1.378906 0.304688 -1.578125 0.453125 -1.765625 C 0.609375 -1.953125 0.78125 -2.128906 0.96875 -2.296875 C 1.164062 -2.472656 1.359375 -2.632812 1.546875 -2.78125 C 1.734375 -2.925781 1.878906 -3.054688 1.984375 -3.171875 C 2.097656 -3.273438 2.210938 -3.394531 2.328125 -3.53125 C 2.441406 -3.664062 2.539062 -3.8125 2.625 -3.96875 C 2.707031 -4.125 2.75 -4.285156 2.75 -4.453125 C 2.75 -4.585938 2.71875 -4.710938 2.65625 -4.828125 C 2.59375 -4.953125 2.507812 -5.039062 2.40625 -5.09375 C 2.300781 -5.144531 2.179688 -5.125 2.046875 -5.03125 C 1.941406 -4.96875 1.867188 -4.875 1.828125 -4.75 C 1.785156 -4.625 1.738281 -4.492188 1.6875 -4.359375 C 1.644531 -4.234375 1.578125 -4.128906 1.484375 -4.046875 C 1.273438 -3.859375 1.066406 -3.800781 0.859375 -3.875 C 0.660156 -3.945312 0.539062 -4.113281 0.5 -4.375 C 0.457031 -4.726562 0.507812 -5.050781 0.65625 -5.34375 C 0.800781 -5.644531 1.007812 -5.90625 1.28125 -6.125 C 1.550781 -6.34375 1.835938 -6.503906 2.140625 -6.609375 C 2.410156 -6.703125 2.679688 -6.734375 2.953125 -6.703125 C 3.222656 -6.679688 3.46875 -6.597656 3.6875 -6.453125 C 3.90625 -6.316406 4.070312 -6.128906 4.1875 -5.890625 C 4.3125 -5.660156 4.363281 -5.390625 4.34375 -5.078125 C 4.320312 -4.722656 4.234375 -4.378906 4.078125 -4.046875 C 3.929688 -3.722656 3.765625 -3.40625 3.578125 -3.09375 C 3.390625 -2.78125 3.222656 -2.472656 3.078125 -2.171875 C 3.210938 -2.191406 3.378906 -2.21875 3.578125 -2.25 C 3.785156 -2.289062 3.988281 -2.304688 4.1875 -2.296875 C 4.394531 -2.296875 4.550781 -2.234375 4.65625 -2.109375 C 4.757812 -2.003906 4.820312 -1.863281 4.84375 -1.6875 C 4.863281 -1.519531 4.859375 -1.351562 4.828125 -1.1875 C 4.796875 -1.019531 4.75 -0.875 4.6875 -0.75 C 4.5625 -0.507812 4.394531 -0.351562 4.1875 -0.28125 C 3.988281 -0.21875 3.765625 -0.171875 3.515625 -0.140625 Z M 3.515625 -0.140625 "/></g></g><g style="fill:#d26e7f;fill-opacity:1;"><g transform="translate(240.529838, 142.633527)"><path style="stroke:none" d="M 3.984375 -0.59375 C 3.585938 -0.25 3.191406 -0.0507812 2.796875 0 C 2.410156 0.0390625 2.046875 -0.0234375 1.703125 -0.203125 C 1.359375 -0.378906 1.0625 -0.640625 0.8125 -0.984375 C 0.570312 -1.335938 0.398438 -1.734375 0.296875 -2.171875 C 0.222656 -2.546875 0.175781 -2.945312 0.15625 -3.375 C 0.144531 -3.800781 0.175781 -4.226562 0.25 -4.65625 C 0.320312 -5.082031 0.441406 -5.484375 0.609375 -5.859375 C 0.773438 -6.242188 1.007812 -6.578125 1.3125 -6.859375 C 1.59375 -7.128906 1.925781 -7.328125 2.3125 -7.453125 C 2.695312 -7.578125 3.082031 -7.578125 3.46875 -7.453125 C 3.59375 -7.421875 3.742188 -7.351562 3.921875 -7.25 C 4.097656 -7.144531 4.265625 -7.019531 4.421875 -6.875 C 4.578125 -6.726562 4.691406 -6.566406 4.765625 -6.390625 C 4.847656 -6.222656 4.851562 -6.054688 4.78125 -5.890625 C 4.875 -5.472656 4.953125 -5.019531 5.015625 -4.53125 C 5.085938 -4.050781 5.109375 -3.566406 5.078125 -3.078125 C 5.054688 -2.597656 4.960938 -2.140625 4.796875 -1.703125 C 4.628906 -1.273438 4.359375 -0.90625 3.984375 -0.59375 Z M 1.953125 -2.15625 C 2.160156 -2 2.332031 -1.945312 2.46875 -2 C 2.613281 -2.050781 2.734375 -2.15625 2.828125 -2.3125 C 2.921875 -2.476562 2.992188 -2.660156 3.046875 -2.859375 C 3.097656 -3.054688 3.140625 -3.222656 3.171875 -3.359375 C 3.203125 -3.515625 3.226562 -3.71875 3.25 -3.96875 C 3.269531 -4.21875 3.269531 -4.472656 3.25 -4.734375 C 3.238281 -4.992188 3.1875 -5.226562 3.09375 -5.4375 C 3.007812 -5.644531 2.863281 -5.785156 2.65625 -5.859375 C 2.445312 -5.929688 2.273438 -5.921875 2.140625 -5.828125 C 2.015625 -5.734375 1.914062 -5.597656 1.84375 -5.421875 C 1.769531 -5.253906 1.710938 -5.070312 1.671875 -4.875 C 1.640625 -4.6875 1.613281 -4.519531 1.59375 -4.375 C 1.5625 -4.21875 1.535156 -4.035156 1.515625 -3.828125 C 1.492188 -3.617188 1.488281 -3.40625 1.5 -3.1875 C 1.507812 -2.976562 1.550781 -2.78125 1.625 -2.59375 C 1.695312 -2.414062 1.804688 -2.269531 1.953125 -2.15625 Z M 1.953125 -2.15625 "/></g></g><g style="fill:#d26e7f;fill-opacity:1;"><g transform="translate(245.776073, 142.633527)"><path style="stroke:none" d="M 3.515625 -0.140625 C 3.359375 -0.128906 3.160156 -0.109375 2.921875 -0.078125 C 2.679688 -0.046875 2.425781 -0.0195312 2.15625 0 C 1.882812 0.0078125 1.617188 0.00390625 1.359375 -0.015625 C 1.109375 -0.0351562 0.882812 -0.0859375 0.6875 -0.171875 C 0.488281 -0.265625 0.347656 -0.394531 0.265625 -0.5625 C 0.148438 -0.769531 0.113281 -0.972656 0.15625 -1.171875 C 0.207031 -1.378906 0.304688 -1.578125 0.453125 -1.765625 C 0.609375 -1.953125 0.78125 -2.128906 0.96875 -2.296875 C 1.164062 -2.472656 1.359375 -2.632812 1.546875 -2.78125 C 1.734375 -2.925781 1.878906 -3.054688 1.984375 -3.171875 C 2.097656 -3.273438 2.210938 -3.394531 2.328125 -3.53125 C 2.441406 -3.664062 2.539062 -3.8125 2.625 -3.96875 C 2.707031 -4.125 2.75 -4.285156 2.75 -4.453125 C 2.75 -4.585938 2.71875 -4.710938 2.65625 -4.828125 C 2.59375 -4.953125 2.507812 -5.039062 2.40625 -5.09375 C 2.300781 -5.144531 2.179688 -5.125 2.046875 -5.03125 C 1.941406 -4.96875 1.867188 -4.875 1.828125 -4.75 C 1.785156 -4.625 1.738281 -4.492188 1.6875 -4.359375 C 1.644531 -4.234375 1.578125 -4.128906 1.484375 -4.046875 C 1.273438 -3.859375 1.066406 -3.800781 0.859375 -3.875 C 0.660156 -3.945312 0.539062 -4.113281 0.5 -4.375 C 0.457031 -4.726562 0.507812 -5.050781 0.65625 -5.34375 C 0.800781 -5.644531 1.007812 -5.90625 1.28125 -6.125 C 1.550781 -6.34375 1.835938 -6.503906 2.140625 -6.609375 C 2.410156 -6.703125 2.679688 -6.734375 2.953125 -6.703125 C 3.222656 -6.679688 3.46875 -6.597656 3.6875 -6.453125 C 3.90625 -6.316406 4.070312 -6.128906 4.1875 -5.890625 C 4.3125 -5.660156 4.363281 -5.390625 4.34375 -5.078125 C 4.320312 -4.722656 4.234375 -4.378906 4.078125 -4.046875 C 3.929688 -3.722656 3.765625 -3.40625 3.578125 -3.09375 C 3.390625 -2.78125 3.222656 -2.472656 3.078125 -2.171875 C 3.210938 -2.191406 3.378906 -2.21875 3.578125 -2.25 C 3.785156 -2.289062 3.988281 -2.304688 4.1875 -2.296875 C 4.394531 -2.296875 4.550781 -2.234375 4.65625 -2.109375 C 4.757812 -2.003906 4.820312 -1.863281 4.84375 -1.6875 C 4.863281 -1.519531 4.859375 -1.351562 4.828125 -1.1875 C 4.796875 -1.019531 4.75 -0.875 4.6875 -0.75 C 4.5625 -0.507812 4.394531 -0.351562 4.1875 -0.28125 C 3.988281 -0.21875 3.765625 -0.171875 3.515625 -0.140625 Z M 3.515625 -0.140625 "/></g></g><g style="fill:#d26e7f;fill-opacity:1;"><g transform="translate(250.784316, 142.633527)"><path style="stroke:none" d="M 1.578125 -0.046875 C 1.296875 -0.128906 1.019531 -0.28125 0.75 -0.5 C 0.488281 -0.726562 0.304688 -0.984375 0.203125 -1.265625 C 0.160156 -1.390625 0.144531 -1.523438 0.15625 -1.671875 C 0.164062 -1.816406 0.203125 -1.953125 0.265625 -2.078125 C 0.328125 -2.210938 0.414062 -2.304688 0.53125 -2.359375 C 0.644531 -2.421875 0.789062 -2.421875 0.96875 -2.359375 C 1.09375 -2.316406 1.1875 -2.242188 1.25 -2.140625 C 1.3125 -2.046875 1.367188 -1.945312 1.421875 -1.84375 C 1.484375 -1.738281 1.5625 -1.65625 1.65625 -1.59375 C 1.75 -1.539062 1.878906 -1.535156 2.046875 -1.578125 C 2.171875 -1.609375 2.28125 -1.675781 2.375 -1.78125 C 2.476562 -1.894531 2.546875 -2.023438 2.578125 -2.171875 C 2.609375 -2.316406 2.59375 -2.445312 2.53125 -2.5625 C 2.46875 -2.707031 2.378906 -2.800781 2.265625 -2.84375 C 2.148438 -2.894531 2.023438 -2.914062 1.890625 -2.90625 C 1.753906 -2.90625 1.617188 -2.898438 1.484375 -2.890625 C 1.347656 -2.878906 1.222656 -2.894531 1.109375 -2.9375 C 0.890625 -3 0.734375 -3.097656 0.640625 -3.234375 C 0.546875 -3.378906 0.492188 -3.546875 0.484375 -3.734375 C 0.472656 -3.921875 0.460938 -4.109375 0.453125 -4.296875 C 0.453125 -4.429688 0.441406 -4.585938 0.421875 -4.765625 C 0.410156 -4.941406 0.40625 -5.117188 0.40625 -5.296875 C 0.414062 -5.484375 0.445312 -5.648438 0.5 -5.796875 C 0.5625 -5.941406 0.664062 -6.050781 0.8125 -6.125 C 1.007812 -6.226562 1.238281 -6.289062 1.5 -6.3125 C 1.757812 -6.332031 2.019531 -6.328125 2.28125 -6.296875 C 2.550781 -6.273438 2.789062 -6.25 3 -6.21875 C 3.101562 -6.21875 3.222656 -6.195312 3.359375 -6.15625 C 3.503906 -6.125 3.632812 -6.070312 3.75 -6 C 3.863281 -5.9375 3.941406 -5.847656 3.984375 -5.734375 C 4.035156 -5.628906 4.023438 -5.492188 3.953125 -5.328125 C 3.867188 -5.128906 3.738281 -5.003906 3.5625 -4.953125 C 3.382812 -4.910156 3.191406 -4.898438 2.984375 -4.921875 C 2.785156 -4.941406 2.609375 -4.957031 2.453125 -4.96875 C 2.367188 -4.96875 2.265625 -4.957031 2.140625 -4.9375 C 2.015625 -4.925781 1.898438 -4.894531 1.796875 -4.84375 C 1.703125 -4.800781 1.644531 -4.738281 1.625 -4.65625 C 1.601562 -4.570312 1.648438 -4.457031 1.765625 -4.3125 C 1.828125 -4.238281 1.925781 -4.1875 2.0625 -4.15625 C 2.207031 -4.125 2.359375 -4.097656 2.515625 -4.078125 C 2.679688 -4.066406 2.84375 -4.046875 3 -4.015625 C 3.15625 -3.992188 3.285156 -3.941406 3.390625 -3.859375 C 3.648438 -3.648438 3.832031 -3.398438 3.9375 -3.109375 C 4.050781 -2.828125 4.09375 -2.523438 4.0625 -2.203125 C 4.03125 -1.890625 3.945312 -1.585938 3.8125 -1.296875 C 3.675781 -1.015625 3.492188 -0.765625 3.265625 -0.546875 C 3.046875 -0.328125 2.789062 -0.164062 2.5 -0.0625 C 2.21875 0.03125 1.910156 0.0351562 1.578125 -0.046875 Z M 1.578125 -0.046875 "/></g></g></g></svg>